<svg xmlns="http://www.w3.org/2000/svg" width="400" height="300" viewBox="0 0 400 300">
  <rect width="400" height="300" fill="#f0f0f0"/>
  <g transform="translate(170, 110)">
    <!-- Avocado Icon -->
    <path d="M40,20 C40,31.05 31.05,40 20,40 C8.95,40 0,31.05 0,20 C0,8.95 8.95,0 20,0 C31.05,0 40,8.95 40,20 Z" fill="#4CAF50"/>
    <path d="M30,20 C30,25.52 25.52,30 20,30 C14.48,30 10,25.52 10,20 C10,14.48 14.48,10 20,10 C25.52,10 30,14.48 30,20 Z" fill="#8D6E63"/>
    <!-- Toast Icon -->
    <rect x="-40" y="-10" width="60" height="60" rx="4" ry="4" fill="#FFECB3"/>
    <!-- Egg Icon -->
    <circle cx="50" cy="0" r="15" fill="#FFF9C4"/>
    <circle cx="50" cy="0" r="5" fill="#FFA000"/>
  </g>
  <text x="200" y="220" font-family="Arial, sans-serif" font-size="16" fill="#333" text-anchor="middle">Avocado Toast with Poached Eggs</text>
</svg>