<svg xmlns="http://www.w3.org/2000/svg" width="400" height="300" viewBox="0 0 400 300">
  <!-- Background -->
  <rect width="400" height="300" fill="#f9f5f0" />
  
  <!-- Plate -->
  <ellipse cx="200" cy="190" rx="150" ry="30" fill="#e0e0e0" />
  <ellipse cx="200" cy="185" rx="120" ry="20" fill="#f5f5f5" />
  
  <!-- Salmon -->
  <path d="M140,130 Q200,100 260,130 Q270,150 260,170 Q200,200 140,170 Q130,150 140,130 Z" fill="#fa8072" />
  
  <!-- Salmon texture -->
  <path d="M160,130 Q200,115 240,130" fill="none" stroke="#f57b71" stroke-width="2" />
  <path d="M150,150 Q200,135 250,150" fill="none" stroke="#f57b71" stroke-width="2" />
  <path d="M150,170 Q200,155 250,170" fill="none" stroke="#f57b71" stroke-width="2" />
  
  <!-- Asparagus -->
  <line x1="270" y1="120" x2="260" y2="165" stroke="#3cb371" stroke-width="8" stroke-linecap="round" />
  <line x1="285" y1="125" x2="275" y2="170" stroke="#3cb371" stroke-width="8" stroke-linecap="round" />
  <line x1="300" y1="120" x2="290" y2="165" stroke="#3cb371" stroke-width="8" stroke-linecap="round" />
  <line x1="315" y1="125" x2="305" y2="170" stroke="#3cb371" stroke-width="8" stroke-linecap="round" />
  
  <!-- Asparagus tips -->
  <ellipse cx="270" cy="120" rx="4" ry="6" fill="#2e8b57" />
  <ellipse cx="285" cy="125" rx="4" ry="6" fill="#2e8b57" />
  <ellipse cx="300" cy="120" rx="4" ry="6" fill="#2e8b57" />
  <ellipse cx="315" cy="125" rx="4" ry="6" fill="#2e8b57" />
  
  <!-- Lemon wedge -->
  <path d="M110,140 Q100,120 120,110 Q140,120 130,140 Z" fill="#f1c40f" />
  <path d="M115,135 Q110,125 120,115" fill="none" stroke="#eee" stroke-width="1" />
  
  <!-- Grill marks on salmon -->
  <path d="M150,140 L240,140" fill="none" stroke="#b35a4a" stroke-width="3" />
  <path d="M150,160 L240,160" fill="none" stroke="#b35a4a" stroke-width="3" />
  
  <!-- Herbs and seasoning -->
  <circle cx="180" cy="130" r="2" fill="#111" />
  <circle cx="220" cy="130" r="2" fill="#111" />
  <circle cx="160" cy="150" r="2" fill="#111" />
  <circle cx="200" cy="150" r="2" fill="#111" />
  <circle cx="240" cy="150" r="2" fill="#111" />
  
  <!-- Lemon zest -->
  <path d="M165,125 L170,123" fill="none" stroke="#f1c40f" stroke-width="1" />
  <path d="M185,125 L190,123" fill="none" stroke="#f1c40f" stroke-width="1" />
  <path d="M205,125 L210,123" fill="none" stroke="#f1c40f" stroke-width="1" />
  <path d="M225,125 L230,123" fill="none" stroke="#f1c40f" stroke-width="1" />
</svg>