<svg xmlns="http://www.w3.org/2000/svg" width="400" height="300" viewBox="0 0 400 300">
  <rect width="400" height="300" fill="#f0f0f0"/>
  <g transform="translate(170, 110)">
    <!-- Fish/Salmon Icon -->
    <path d="M54.6,23.73C54.6,23.73 63.81,12.53 54.18,1.07C54.18,1.07 47.76,20.15 29.11,1.26C29.11,1.26 37.67,24.76 12.87,37.58C12.87,37.58 35.44,37.27 27.52,54.79C27.52,54.79 46.94,46.14 54.6,23.73Z" fill="#FF7F50"/>
    <!-- Fork Icon -->
    <path d="M0.22,80.42L11.23,69.42C12.25,68.39 13.94,68.39 14.97,69.42L20.71,75.16C21.74,76.19 21.74,77.88 20.71,78.9L9.71,89.91C8.68,90.94 7,90.94 5.97,89.91L0.22,84.17C-0.8,83.14 -0.8,81.45 0.22,80.42Z" fill="#555"/>
    <path d="M20.5,60.12L31.5,49.12C32.53,48.09 34.22,48.09 35.25,49.12L40.99,54.86C42.02,55.89 42.02,57.58 40.99,58.6L29.99,69.61C28.96,70.64 27.27,70.64 26.25,69.61L20.5,63.87C19.48,62.84 19.48,61.15 20.5,60.12Z" fill="#555"/>
  </g>
  <text x="200" y="220" font-family="Arial, sans-serif" font-size="16" fill="#333" text-anchor="middle">Grilled Salmon with Asparagus</text>
</svg>