<svg xmlns="http://www.w3.org/2000/svg" width="400" height="300" viewBox="0 0 400 300">
  <!-- Background -->
  <rect width="400" height="300" fill="#f9f5f0" />
  
  <!-- Bowl -->
  <ellipse cx="200" cy="190" rx="150" ry="30" fill="#e0e0e0" />
  <ellipse cx="200" cy="170" rx="100" ry="60" fill="#f5f5f5" />
  <path d="M120,170 A100,60 0 0,1 280,170" fill="none" stroke="#e5e5e5" stroke-width="3" />
  
  <!-- Quinoa base -->
  <ellipse cx="200" cy="170" rx="80" ry="45" fill="#e8dcc3" />
  
  <!-- Roasted vegetables -->
  <!-- Red bell pepper -->
  <path d="M160,140 Q180,125 200,140" fill="#e74c3c" />
  <path d="M220,150 Q235,140 250,160" fill="#e74c3c" />
  
  <!-- Zucchini -->
  <path d="M140,150 Q160,160 180,150" fill="#2ecc71" />
  <path d="M210,170 Q230,160 250,170" fill="#2ecc71" />
  
  <!-- Onions -->
  <path d="M170,160 Q190,170 210,160" fill="#f9ebde" />
  <path d="M150,180 Q170,170 190,180" fill="#f9ebde" />
  
  <!-- Olive oil drizzle -->
  <path d="M140,140 Q220,110 260,145" fill="none" stroke="#b7a82b" stroke-width="2" stroke-dasharray="1,3" />
  <path d="M150,170 Q190,140 230,165" fill="none" stroke="#b7a82b" stroke-width="2" stroke-dasharray="1,3" />
  
  <!-- Herbs (parsley) -->
  <circle cx="160" cy="145" r="3" fill="#2ecc71" />
  <circle cx="175" cy="155" r="3" fill="#2ecc71" />
  <circle cx="220" cy="140" r="3" fill="#2ecc71" />
  <circle cx="240" cy="155" r="3" fill="#2ecc71" />
  <circle cx="200" cy="165" r="3" fill="#2ecc71" />
  
  <!-- Lemon wedge -->
  <path d="M270,150 Q280,140 285,155 Q280,165 270,160 Z" fill="#f1c40f" />
  <path d="M277,148 Q280,151 282,156" fill="none" stroke="#eee" stroke-width="1" />
</svg>