<svg xmlns="http://www.w3.org/2000/svg" width="400" height="300" viewBox="0 0 400 300">
  <rect width="400" height="300" fill="#f0f0f0"/>
  <g transform="translate(170, 110)">
    <!-- Bowl Icon -->
    <ellipse cx="0" cy="0" rx="55" ry="25" fill="#E0E0E0" />
    <ellipse cx="0" cy="-5" rx="45" ry="20" fill="#FFFFFF" />
    
    <!-- Salad Elements -->
    <path d="M-25,-10 C-20,-15 -15,-8 -10,-12 C-5,-16 0,-9 5,-14 C10,-19 15,-13 20,-17 C25,-21 30,-15 35,-10" stroke="#4CAF50" stroke-width="4" fill="none" />
    <path d="M-30,-5 C-25,-10 -20,-3 -15,-7 C-10,-11 -5,-4 0,-9 C5,-14 10,-8 15,-12 C20,-16 25,-10 30,-5" stroke="#8BC34A" stroke-width="4" fill="none" />
    <path d="M-25,0 C-20,-5 -15,2 -10,-2 C-5,-6 0,1 5,-4 C10,-9 15,-3 20,-7 C25,-11 30,-5 35,0" stroke="#CDDC39" stroke-width="4" fill="none" />
    
    <!-- Quinoa "dots" -->
    <circle cx="-20" cy="-3" r="2" fill="#FFE0B2" />
    <circle cx="-12" cy="-7" r="2" fill="#FFE0B2" />
    <circle cx="-5" cy="-2" r="2" fill="#FFE0B2" />
    <circle cx="3" cy="-5" r="2" fill="#FFE0B2" />
    <circle cx="10" cy="-1" r="2" fill="#FFE0B2" />
    <circle cx="17" cy="-6" r="2" fill="#FFE0B2" />
    <circle cx="22" cy="-3" r="2" fill="#FFE0B2" />
  </g>
  <text x="200" y="220" font-family="Arial, sans-serif" font-size="16" fill="#333" text-anchor="middle">Quinoa Salad with Roasted Vegetables</text>
</svg>